<?xml version="1.0" encoding="utf-8"?>
<!-- Generator: Adobe Illustrator 15.0.0, SVG Export Plug-In . SVG Version: 6.00 Build 0)  -->
<!DOCTYPE svg PUBLIC "-//W3C//DTD SVG 1.1//EN" "http://www.w3.org/Graphics/SVG/1.1/DTD/svg11.dtd">
<svg version="1.1" id="Ebene_1" xmlns="http://www.w3.org/2000/svg" xmlns:xlink="http://www.w3.org/1999/xlink" x="0px" y="0px"
	 width="376px" height="305px" viewBox="0 0 376 305" enable-background="new 0 0 376 305" xml:space="preserve">
<g>
	
		<linearGradient id="SVGID_1_" gradientUnits="userSpaceOnUse" x1="4.459" y1="43.3828" x2="100.078" y2="43.3828" gradientTransform="matrix(0.9795 0.2014 -0.2014 0.9795 22.4802 33.2188)">
		<stop  offset="0" style="stop-color:#1F1F1F"/>
		<stop  offset="0.6012" style="stop-color:#FFFFFF"/>
	</linearGradient>
	<polygon fill="url(#SVGID_1_)" points="28.25,27.3 118.75,77.234 60.095,136.638 	"/>
	
		<linearGradient id="SVGID_2_" gradientUnits="userSpaceOnUse" x1="-39.8188" y1="125.0879" x2="44.1789" y2="125.0879" gradientTransform="matrix(-0.9592 0.2826 0.2826 0.9592 277.8083 -32.59)">
		<stop  offset="0" style="stop-color:#1F1F1F"/>
		<stop  offset="0.6012" style="stop-color:#FFFFFF"/>
	</linearGradient>
	<polygon fill="url(#SVGID_2_)" points="325.938,135.714 262.521,81.424 337.237,28.223 	"/>
	
		<radialGradient id="SVGID_3_" cx="199.7998" cy="189.2412" r="107.2146" gradientTransform="matrix(1 0 0 0.8127 0 35.4512)" gradientUnits="userSpaceOnUse">
		<stop  offset="0" style="stop-color:#1F1F1F"/>
		<stop  offset="1" style="stop-color:#FFFFFF"/>
	</radialGradient>
	<ellipse fill="url(#SVGID_3_)" cx="199.8" cy="163.199" rx="148.5" ry="122.5"/>
</g>
<circle opacity="0.25" fill="#1F7AFF" stroke="#000000" stroke-miterlimit="10" cx="117.808" cy="153.823" r="22.177"/>
<path opacity="0.25" fill="#1F7AFF" stroke="#000000" stroke-miterlimit="10" d="M295.684,155.037
	c0,13.081-10.604,23.684-23.684,23.684c-13.081,0-23.685-10.603-23.685-23.684c0-9.679,0.675-11.605,4.56-13.662
	c2.825-1.496,20.791,0.448,24.125,1.125c7.815,1.588,14.384,1.467,18.684,7.044C295.684,149.544,295.684,149.544,295.684,155.037z"
	/>
<path fill="#343434" d="M185.5,190.5c3.245-6.623,26.926-6.911,29.5,0c2.13,5.719-13.994,20-13.994,20S182.716,196.182,185.5,190.5z
	"/>
<path fill="none" stroke="#000000" stroke-miterlimit="10" d="M200.96,209.5c0,21-2.016,28-26.96,28"/>
<path fill="none" stroke="#000000" stroke-miterlimit="10" d="M200.674,209.752c0.93,25.082,5.758,27.936,29.039,27.936"/>
<line fill="#FFFFFF" stroke="#000000" stroke-miterlimit="10" x1="138" y1="208" x2="66" y2="185.424"/>
<line fill="#FFFFFF" stroke="#000000" stroke-miterlimit="10" x1="133" y1="217" x2="61.5" y2="214"/>
<line fill="#FFFFFF" stroke="#000000" stroke-miterlimit="10" x1="133" y1="226.25" x2="73.5" y2="238.5"/>
<line fill="#FFFFFF" stroke="#000000" stroke-miterlimit="10" x1="263.011" y1="206.582" x2="336.746" y2="190.561"/>
<line fill="#FFFFFF" stroke="#000000" stroke-miterlimit="10" x1="267.183" y1="215.994" x2="338.663" y2="219.426"/>
<line fill="#FFFFFF" stroke="#000000" stroke-miterlimit="10" x1="266.352" y1="225.207" x2="324.512" y2="242.75"/>
<circle stroke="#000000" stroke-miterlimit="10" cx="118.25" cy="154.25" r="7.75"/>
<circle stroke="#000000" stroke-miterlimit="10" cx="271.75" cy="157.022" r="7.75"/>
<path fill="none" stroke="#000000" stroke-miterlimit="10" d="M88.5,123c0,0,10.596-7.573,14.75-8.5
	c7.136-1.592,30.75,2.5,29.75,2.5"/>
<line fill="#FFFFFF" stroke="#000000" stroke-miterlimit="10" x1="256.81" y1="124.233" x2="294.012" y2="129.926"/>
</svg>
